Coordinates
version=1
nRows=6
nColumns=38
inDegrees=yes

Units are S.I. units (second, meters, Newtons, ...)
Angles are in degrees.

endheader
time	pelvis_tilt	pelvis_list	pelvis_rotation	pelvis_tx	pelvis_ty	pelvis_tz	hip_flexion_r	hip_adduction_r	hip_rotation_r	knee_angle_r	ankle_angle_r	subtalar_angle_r	mtp_angle_r	hip_flexion_l	hip_adduction_l	hip_rotation_l	knee_angle_l	ankle_angle_l	subtalar_angle_l	mtp_angle_l	lumbar_extension	lumbar_bending	lumbar_rotation	arm_flex_r	arm_add_r	arm_rot_r	elbow_flex_r	pro_sup_r	wrist_flex_r	wrist_dev_r	arm_flex_l	arm_add_l	arm_rot_l	elbow_flex_l	pro_sup_l	wrist_flex_l	wrist_dev_l
      3.93000000	      0.13983969	     -9.18043072	     87.64926242	     -0.20502382	      1.11425462	     -0.48421855	    -10.17207349	      1.62209499	      4.74224289	    -22.67323060	    -14.80584423	      0.00000000	      0.00000000	     33.23633318	     -1.15454271	     -2.15957255	    -22.90014680	      1.62691028	      0.00000000	      0.00000000	    -10.11807156	     -4.31901911	     15.82120099	      0.00000000	      0.00000000	      0.00000000	     90.00000000	     90.00000000	      0.00000000	      0.00000000	      0.00000000	      0.00000000	      0.00000000	     90.00000000	     90.00000000	      0.00000000	      0.00000000
      3.93500000	      0.50605122	     -8.91810637	     87.61444703	     -0.20493685	      1.11464588	     -0.48498590	    -10.42879779	      2.01853360	      5.45711169	    -24.10913085	    -15.20662830	      0.00000000	      0.00000000	     32.41431075	     -1.38109268	     -1.51467169	    -20.42890987	      1.51137466	      0.00000000	      0.00000000	    -10.39256036	     -4.03039667	     15.89177623	      0.00000000	      0.00000000	      0.00000000	     90.00000000	     90.00000000	      0.00000000	      0.00000000	      0.00000000	      0.00000000	      0.00000000	     90.00000000	     90.00000000	      0.00000000	      0.00000000
      3.94000000	      0.85411515	     -8.62849229	     87.56626063	     -0.20475763	      1.11491239	     -0.48564994	    -10.60979844	      2.44343309	      6.22617183	    -25.80664858	    -15.25037311	      0.00000000	      0.00000000	     31.60438929	     -1.62002307	     -0.88373807	    -18.19448448	      1.41532776	      0.00000000	      0.00000000	    -10.72252553	     -3.78060441	     15.96998732	      0.00000000	      0.00000000	      0.00000000	     90.00000000	     90.00000000	      0.00000000	      0.00000000	      0.00000000	      0.00000000	      0.00000000	     90.00000000	     90.00000000	      0.00000000	      0.00000000
      3.94500000	      1.17609073	     -8.31986455	     87.50752129	     -0.20448449	      1.11504685	     -0.48620440	    -10.71003312	      2.88836992	      7.01811773	    -27.74686414	    -14.97719639	      0.00000000	      0.00000000	     30.82136041	     -1.86030273	     -0.28487023	    -16.21575831	      1.34413499	      0.00000000	      0.00000000	    -11.09910295	     -3.58043364	     16.04925532	      0.00000000	      0.00000000	      0.00000000	     90.00000000	     90.00000000	      0.00000000	      0.00000000	      0.00000000	      0.00000000	      0.00000000	     90.00000000	     90.00000000	      0.00000000	      0.00000000
      3.95000000	      1.46512015	     -8.00077405	     87.44072103	     -0.20412560	      1.11501394	     -0.48664182	    -10.72447320	      3.34269684	      7.80014479	    -29.90748275	    -14.44408031	      0.00000000	      0.00000000	     30.07840875	     -2.09024318	      0.26408255	    -14.50448733	      1.29852059	      0.00000000	      0.00000000	    -11.51176711	     -3.43819070	     16.12196413	      0.00000000	      0.00000000	      0.00000000	     90.00000000	     90.00000000	      0.00000000	      0.00000000	      0.00000000	      0.00000000	      0.00000000	     90.00000000	     90.00000000	      0.00000000	      0.00000000
      3.95500000	      1.71537116	     -7.67984020	     87.36808532	     -0.20369887	      1.11476481	     -0.48695511	    -10.64889727	      3.79397441	      8.53997539	    -32.26405513	    -13.71890348	      0.00000000	      0.00000000	     29.38700956	     -2.29810107	      0.74665518	    -13.06558348	      1.27388931	      0.00000000	      0.00000000	    -11.94868557	     -3.35929692	     16.17951614	      0.00000000	      0.00000000	      0.00000000	     90.00000000	     90.00000000	      0.00000000	      0.00000000	      0.00000000	      0.00000000	      0.00000000	     90.00000000	     90.00000000	      0.00000000	      0.00000000
